<svg xmlns="http://www.w3.org/2000/svg" version="1.1" xmlns:xlink="http://www.w3.org/1999/xlink" xmlns:svgjs="http://svgjs.dev/svgjs" width="2000" height="974" viewBox="0 0 2000 974"><g transform="matrix(1,0,0,1,-1.2121212121212466,-0.799810988509762)"><svg viewBox="0 0 396 193" data-background-color="#ffffff" preserveAspectRatio="xMidYMid meet" height="974" width="2000" xmlns="http://www.w3.org/2000/svg" xmlns:xlink="http://www.w3.org/1999/xlink"><g id="tight-bounds" transform="matrix(1,0,0,1,0.2400000000000091,0.1584841075794543)"><svg viewBox="0 0 395.52 192.6830317848411" height="192.6830317848411" width="395.52"><g><svg viewBox="0 0 395.52 192.6830317848411" height="192.6830317848411" width="395.52"><g><svg viewBox="0 0 395.52 192.6830317848411" height="192.6830317848411" width="395.52"><g><svg viewBox="0 0 395.52 192.6830317848411" height="192.6830317848411" width="395.52"><g><svg viewBox="0 0 395.52 192.6830317848411" height="192.6830317848411" width="395.52"><g transform="matrix(1,0,0,1,0,0)"><svg width="395.52" viewBox="0.7000000000000014 -36.55000000000001 163.60000000000002 76.40000000000002" height="192.6830317848411" data-palette-color="#398378"><svg></svg><svg></svg><g class="undefined-text-0" data-fill-palette-color="primary" id="text-0"><path d="M11.4 0v0c-0.233 0-0.44-0.077-0.62-0.23-0.187-0.147-0.28-0.37-0.28-0.67v0-33.85h-8.9c-0.267 0-0.483-0.09-0.65-0.27-0.167-0.187-0.25-0.397-0.25-0.63v0c0-0.233 0.083-0.44 0.25-0.62 0.167-0.187 0.383-0.28 0.65-0.28v0h19.55c0.3 0 0.527 0.083 0.68 0.25 0.147 0.167 0.22 0.367 0.22 0.6v0c0 0.233-0.067 0.45-0.2 0.65-0.133 0.2-0.367 0.3-0.7 0.3v0h-8.85v33.85c0 0.3-0.09 0.523-0.27 0.67-0.187 0.153-0.397 0.23-0.63 0.23zM35.15 0.3v0c-1.833 0-3.483-0.343-4.95-1.03-1.467-0.68-2.633-1.77-3.5-3.27-0.867-1.5-1.3-3.5-1.3-6v0-16.25c0-2.5 0.433-4.5 1.3-6 0.867-1.5 2.033-2.59 3.5-3.27 1.467-0.687 3.117-1.03 4.95-1.03v0c1.833 0 3.493 0.343 4.98 1.03 1.48 0.68 2.653 1.77 3.52 3.27 0.867 1.5 1.3 3.5 1.3 6v0 16.25c0 2.5-0.433 4.5-1.3 6-0.867 1.5-2.04 2.59-3.52 3.27-1.487 0.687-3.147 1.03-4.98 1.03zM35.15-1.5v0c2.5 0 4.46-0.693 5.88-2.08 1.413-1.38 2.12-3.52 2.12-6.42v0-16.25c0-2.9-0.707-5.043-2.12-6.43-1.42-1.38-3.38-2.07-5.88-2.07v0c-2.5 0-4.45 0.69-5.85 2.07-1.4 1.387-2.1 3.53-2.1 6.43v0 16.25c0 2.9 0.7 5.04 2.1 6.42 1.4 1.387 3.35 2.08 5.85 2.08zM62.45 0.3v0c-1.833 0-3.483-0.343-4.95-1.03-1.467-0.68-2.633-1.77-3.5-3.27-0.867-1.5-1.3-3.5-1.3-6v0-25.7c0-0.3 0.093-0.517 0.28-0.65 0.18-0.133 0.387-0.2 0.62-0.2v0c0.233 0 0.443 0.067 0.63 0.2 0.18 0.133 0.27 0.35 0.27 0.65v0 25.7c0 2.9 0.7 5.04 2.1 6.42 1.4 1.387 3.35 2.08 5.85 2.08v0c2.5 0 4.46-0.693 5.88-2.08 1.413-1.38 2.12-3.52 2.12-6.42v0-25.7c0-0.3 0.09-0.517 0.27-0.65 0.187-0.133 0.397-0.2 0.63-0.2v0c0.233 0 0.44 0.067 0.62 0.2 0.187 0.133 0.28 0.35 0.28 0.65v0 25.7c0 2.5-0.433 4.5-1.3 6-0.867 1.5-2.043 2.59-3.53 3.27-1.48 0.687-3.137 1.03-4.97 1.03zM99 0v0c-0.333 0-0.617-0.217-0.85-0.65-0.233-0.433-0.433-0.817-0.6-1.15v0l-8-15.6h-7.4v16.5c0 0.3-0.09 0.523-0.27 0.67-0.187 0.153-0.397 0.23-0.63 0.23v0c-0.233 0-0.44-0.077-0.62-0.23-0.187-0.147-0.28-0.37-0.28-0.67v0-34.8c0-0.233 0.083-0.423 0.25-0.57 0.167-0.153 0.383-0.247 0.65-0.28v0h8.35c1.833 0 3.533 0.29 5.1 0.87 1.567 0.587 2.827 1.57 3.78 2.95 0.947 1.387 1.42 3.297 1.42 5.73v0c0 2.133-0.373 3.867-1.12 5.2-0.753 1.333-1.763 2.333-3.03 3-1.267 0.667-2.683 1.1-4.25 1.3v0l8.25 16.05c0.067 0.1 0.11 0.2 0.13 0.3 0.013 0.1 0.02 0.183 0.02 0.25v0c0 0.167-0.04 0.317-0.12 0.45-0.087 0.133-0.197 0.24-0.33 0.32-0.133 0.087-0.283 0.13-0.45 0.13zM82.15-34.75v15.55h7.45c2.5 0 4.543-0.61 6.13-1.83 1.58-1.213 2.37-3.203 2.37-5.97v0c0-2.767-0.79-4.75-2.37-5.95-1.587-1.2-3.63-1.8-6.13-1.8v0zM106.7 0v0c-0.233 0-0.44-0.077-0.62-0.23-0.187-0.147-0.28-0.37-0.28-0.67v0-34.8c0-0.3 0.093-0.517 0.28-0.65 0.18-0.133 0.387-0.2 0.62-0.2v0c0.233 0 0.443 0.067 0.63 0.2 0.18 0.133 0.27 0.35 0.27 0.65v0 34.8c0 0.3-0.09 0.523-0.27 0.67-0.187 0.153-0.397 0.23-0.63 0.23zM123.5 0.3v0c-2.133 0-3.917-0.327-5.35-0.98-1.433-0.647-2.51-1.38-3.23-2.2-0.713-0.813-1.07-1.437-1.07-1.87v0c0-0.167 0.05-0.333 0.15-0.5 0.1-0.167 0.217-0.3 0.35-0.4 0.133-0.1 0.25-0.15 0.35-0.15v0c0.233 0 0.5 0.217 0.8 0.65 0.3 0.433 0.733 0.933 1.3 1.5 0.567 0.567 1.357 1.067 2.37 1.5 1.02 0.433 2.38 0.65 4.08 0.65v0c1.833 0 3.367-0.31 4.6-0.93 1.233-0.613 2.167-1.52 2.8-2.72 0.633-1.2 0.95-2.683 0.95-4.45v0c0-1.833-0.307-3.3-0.92-4.4-0.62-1.1-1.43-1.983-2.43-2.65-1-0.667-2.093-1.21-3.28-1.63-1.18-0.413-2.37-0.82-3.57-1.22-1.2-0.4-2.3-0.917-3.3-1.55-1-0.633-1.81-1.493-2.43-2.58-0.613-1.08-0.92-2.503-0.92-4.27v0c0-1.8 0.317-3.267 0.95-4.4 0.633-1.133 1.45-2.01 2.45-2.63 1-0.613 2.067-1.037 3.2-1.27 1.133-0.233 2.217-0.35 3.25-0.35v0c1.033 0 2.017 0.083 2.95 0.25 0.933 0.167 1.773 0.373 2.52 0.62 0.753 0.253 1.347 0.53 1.78 0.83 0.433 0.3 0.65 0.6 0.65 0.9v0c0 0.133-0.04 0.283-0.12 0.45-0.087 0.167-0.197 0.317-0.33 0.45-0.133 0.133-0.283 0.2-0.45 0.2v0c-0.233 0-0.617-0.16-1.15-0.48-0.533-0.313-1.277-0.627-2.23-0.94-0.947-0.32-2.17-0.48-3.67-0.48v0c-1.233 0-2.467 0.183-3.7 0.55-1.233 0.367-2.257 1.033-3.07 2-0.82 0.967-1.23 2.35-1.23 4.15v0c0 1.533 0.307 2.757 0.92 3.67 0.62 0.92 1.43 1.647 2.43 2.18 1 0.533 2.09 0.99 3.27 1.37 1.187 0.387 2.38 0.813 3.58 1.28 1.2 0.467 2.3 1.073 3.3 1.82 1 0.753 1.807 1.763 2.42 3.03 0.62 1.267 0.93 2.917 0.93 4.95v0c0 2.367-0.423 4.29-1.27 5.77-0.853 1.487-2.02 2.57-3.5 3.25-1.487 0.687-3.197 1.03-5.13 1.03zM140.85 0v0c-0.233 0-0.44-0.077-0.62-0.23-0.187-0.147-0.28-0.37-0.28-0.67v0-34.8c0-0.333 0.093-0.56 0.28-0.68 0.18-0.113 0.387-0.17 0.62-0.17v0c0.233 0 0.45 0.117 0.65 0.35 0.2 0.233 0.383 0.49 0.55 0.77 0.167 0.287 0.283 0.513 0.35 0.68v0l9.7 19.1 9.75-19.1c0.1-0.167 0.227-0.393 0.38-0.68 0.147-0.28 0.33-0.537 0.55-0.77 0.213-0.233 0.42-0.35 0.62-0.35v0c0.267 0 0.483 0.057 0.65 0.17 0.167 0.12 0.25 0.347 0.25 0.68v0 34.8c0 0.3-0.09 0.523-0.27 0.67-0.187 0.153-0.397 0.23-0.63 0.23v0c-0.233 0-0.44-0.077-0.62-0.23-0.187-0.147-0.28-0.37-0.28-0.67v0-31.25l-9.45 18.2c-0.167 0.333-0.323 0.573-0.47 0.72-0.153 0.153-0.313 0.23-0.48 0.23v0c-0.133 0-0.283-0.077-0.45-0.23-0.167-0.147-0.333-0.387-0.5-0.72v0l-9.4-18.2v31.25c0 0.3-0.09 0.523-0.27 0.67-0.187 0.153-0.397 0.23-0.63 0.23z" fill="#000000" fill-rule="nonzero" stroke="none" stroke-width="1" stroke-linecap="butt" stroke-linejoin="miter" stroke-miterlimit="10" stroke-dasharray="" stroke-dashoffset="0" font-family="none" font-weight="none" font-size="none" text-anchor="none" style="mix-blend-mode: normal" data-fill-palette-color="primary" opacity="1"></path><path d="M13.9 39.85h-8.85c-0.267 0-0.483-0.083-0.65-0.25-0.167-0.167-0.25-0.367-0.25-0.6v0-34.8c0-0.3 0.09-0.527 0.27-0.68 0.187-0.147 0.397-0.22 0.63-0.22v0h7.5c1.933 0 3.677 0.207 5.23 0.62 1.547 0.42 2.77 1.23 3.67 2.43 0.9 1.2 1.35 2.967 1.35 5.3v0c0 2.133-0.39 3.923-1.17 5.37-0.787 1.453-1.813 2.463-3.08 3.03v0c1.033 0.433 1.933 1.01 2.7 1.73 0.767 0.713 1.367 1.637 1.8 2.77 0.433 1.133 0.65 2.567 0.65 4.3v0 0.85c0 2.5-0.433 4.493-1.3 5.98-0.867 1.48-2.04 2.543-3.52 3.19-1.487 0.653-3.147 0.98-4.98 0.98zM5.95 20.95v17.1h7.95c2.5 0 4.46-0.667 5.88-2 1.413-1.333 2.12-3.45 2.12-6.35v0-0.85c0-2.9-0.707-4.943-2.12-6.13-1.42-1.18-3.38-1.77-5.88-1.77v0zM5.95 5.1v14.05h6.95c2.767 0 4.81-0.527 6.13-1.58 1.313-1.047 1.97-3.02 1.97-5.92v0c0-1.867-0.357-3.267-1.07-4.2-0.72-0.933-1.703-1.557-2.95-1.87-1.253-0.32-2.697-0.48-4.33-0.48v0zM49.15 39.85v0c-0.333 0-0.617-0.217-0.85-0.65-0.233-0.433-0.433-0.817-0.6-1.15v0l-8-15.6h-7.4v16.5c0 0.3-0.09 0.523-0.27 0.67-0.187 0.153-0.397 0.23-0.63 0.23v0c-0.233 0-0.44-0.077-0.62-0.23-0.187-0.147-0.28-0.37-0.28-0.67v0-34.8c0-0.233 0.083-0.423 0.25-0.57 0.167-0.153 0.383-0.247 0.65-0.28v0h8.35c1.833 0 3.533 0.29 5.1 0.87 1.567 0.587 2.827 1.57 3.78 2.95 0.947 1.387 1.42 3.297 1.42 5.73v0c0 2.133-0.373 3.867-1.12 5.2-0.753 1.333-1.763 2.333-3.03 3-1.267 0.667-2.683 1.1-4.25 1.3v0l8.25 16.05c0.067 0.1 0.11 0.2 0.13 0.3 0.013 0.1 0.02 0.183 0.02 0.25v0c0 0.167-0.04 0.317-0.12 0.45-0.087 0.133-0.197 0.24-0.33 0.32-0.133 0.087-0.283 0.13-0.45 0.13zM32.3 5.1v15.55h7.45c2.5 0 4.543-0.61 6.13-1.83 1.58-1.213 2.37-3.203 2.37-5.97v0c0-2.767-0.79-4.75-2.37-5.95-1.587-1.2-3.63-1.8-6.13-1.8v0zM53.95 39.85v0c-0.133 0-0.273-0.033-0.42-0.1-0.153-0.067-0.27-0.16-0.35-0.28-0.087-0.113-0.13-0.253-0.13-0.42v0c0-0.133 0.017-0.233 0.05-0.3v0l10.85-35.05c0.067-0.267 0.183-0.45 0.35-0.55 0.167-0.1 0.35-0.15 0.55-0.15v0c0.2 0 0.393 0.057 0.58 0.17 0.18 0.12 0.303 0.297 0.37 0.53v0l10.75 35.05c0.033 0.067 0.05 0.15 0.05 0.25v0c0 0.133-0.05 0.267-0.15 0.4-0.1 0.133-0.223 0.24-0.37 0.32-0.153 0.087-0.313 0.13-0.48 0.13v0c-0.167 0-0.323-0.05-0.47-0.15-0.153-0.1-0.263-0.267-0.33-0.5v0l-2.55-8.2h-14.9l-2.5 8.2c-0.067 0.233-0.183 0.4-0.35 0.5-0.167 0.1-0.35 0.15-0.55 0.15zM64.85 6.8l-6.95 22.4h13.8zM98.85 39.85h-18.75c-0.233 0-0.44-0.083-0.62-0.25-0.187-0.167-0.28-0.367-0.28-0.6v0c0-0.2 0.05-0.4 0.15-0.6v0l17.5-33.3h-16.25c-0.3 0-0.523-0.09-0.67-0.27-0.153-0.187-0.23-0.397-0.23-0.63v0c0-0.233 0.077-0.44 0.23-0.62 0.147-0.187 0.37-0.28 0.67-0.28v0h17.75c0.3 0 0.527 0.067 0.68 0.2 0.147 0.133 0.22 0.317 0.22 0.55v0c0 0.267-0.083 0.533-0.25 0.8v0l-17.45 33.2h17.3c0.3 0 0.527 0.09 0.68 0.27 0.147 0.187 0.22 0.397 0.22 0.63v0c0 0.233-0.073 0.44-0.22 0.62-0.153 0.187-0.38 0.28-0.68 0.28zM106.1 39.85v0c-0.233 0-0.44-0.077-0.62-0.23-0.187-0.147-0.28-0.37-0.28-0.67v0-34.8c0-0.3 0.093-0.517 0.28-0.65 0.18-0.133 0.387-0.2 0.62-0.2v0c0.233 0 0.443 0.067 0.63 0.2 0.18 0.133 0.27 0.35 0.27 0.65v0 34.8c0 0.3-0.09 0.523-0.27 0.67-0.187 0.153-0.397 0.23-0.63 0.23zM132.3 39.85h-16.1c-0.233 0-0.44-0.077-0.62-0.23-0.187-0.147-0.28-0.37-0.28-0.67v0-34.8c0-0.3 0.093-0.517 0.28-0.65 0.18-0.133 0.387-0.2 0.62-0.2v0c0.233 0 0.443 0.067 0.63 0.2 0.18 0.133 0.27 0.35 0.27 0.65v0 33.9h15.2c0.267 0 0.46 0.09 0.58 0.27 0.113 0.187 0.17 0.397 0.17 0.63v0c0 0.233-0.057 0.44-0.17 0.62-0.12 0.187-0.313 0.28-0.58 0.28z" fill="#000000" fill-rule="nonzero" stroke="none" stroke-width="1" stroke-linecap="butt" stroke-linejoin="miter" stroke-miterlimit="10" stroke-dasharray="" stroke-dashoffset="0" font-family="none" font-weight="none" font-size="none" text-anchor="none" style="mix-blend-mode: normal" data-fill-palette-color="accent" opacity="1"></path></g></svg></g></svg></g></svg></g></svg></g></svg></g><defs></defs></svg><rect width="395.52" height="192.6830317848411" fill="none" stroke="none" visibility="hidden"></rect></g></svg></g></svg>