<svg xmlns="http://www.w3.org/2000/svg" version="1.1" xmlns:xlink="http://www.w3.org/1999/xlink" xmlns:svgjs="http://svgjs.dev/svgjs" width="128" height="128" viewBox="0 0 128 128"><g transform="matrix(0.8046875,0,0,0.8046875,12.333870967741937,19.597621364234172)"><svg viewBox="0 0 155 134" data-background-color="#ffffff" preserveAspectRatio="xMidYMid meet" height="110" width="128" xmlns="http://www.w3.org/2000/svg" xmlns:xlink="http://www.w3.org/1999/xlink"><g id="tight-bounds" transform="matrix(1,0,0,1,0.25,0.21885245901637518)"><svg viewBox="0 0 154.5 133.56229508196722" height="133.56229508196722" width="154.5"><g><svg viewBox="0 0 154.5 133.56229508196722" height="133.56229508196722" width="154.5"><g><svg viewBox="0 0 154.5 133.56229508196722" height="133.56229508196722" width="154.5"><g><svg viewBox="0 0 154.5 133.56229508196722" height="133.56229508196722" width="154.5"><g><svg viewBox="0 0 154.5 133.56229508196722" height="133.56229508196722" width="154.5"><g transform="matrix(1,0,0,1,0,0)"><svg width="154.5" viewBox="0.7000000000000014 -36.550000000000004 45.75 36.55000000000001" height="133.56229508196722" data-palette-color="#398378"><svg></svg><g class="undefined-text-0" data-fill-palette-color="primary" id="text-0"><path d="M11.4 0v0c-0.233 0-0.44-0.077-0.62-0.23-0.187-0.147-0.28-0.37-0.28-0.67v0-33.85h-8.9c-0.267 0-0.483-0.09-0.65-0.27-0.167-0.187-0.25-0.397-0.25-0.63v0c0-0.233 0.083-0.44 0.25-0.62 0.167-0.187 0.383-0.28 0.65-0.28v0h19.55c0.3 0 0.527 0.083 0.68 0.25 0.147 0.167 0.22 0.367 0.22 0.6v0c0 0.233-0.067 0.45-0.2 0.65-0.133 0.2-0.367 0.3-0.7 0.3v0h-8.85v33.85c0 0.3-0.09 0.523-0.27 0.67-0.187 0.153-0.397 0.23-0.63 0.23zM36.65 0h-8.85c-0.267 0-0.483-0.083-0.65-0.25-0.167-0.167-0.25-0.367-0.25-0.6v0-34.8c0-0.3 0.093-0.527 0.28-0.68 0.18-0.147 0.387-0.22 0.62-0.22v0h7.5c1.933 0 3.677 0.207 5.23 0.62 1.547 0.42 2.77 1.23 3.67 2.43 0.9 1.2 1.35 2.967 1.35 5.3v0c0 2.133-0.39 3.923-1.17 5.37-0.787 1.453-1.813 2.463-3.08 3.03v0c1.033 0.433 1.933 1.01 2.7 1.73 0.767 0.713 1.367 1.637 1.8 2.77 0.433 1.133 0.65 2.567 0.65 4.3v0 0.85c0 2.5-0.433 4.493-1.3 5.98-0.867 1.48-2.04 2.543-3.52 3.19-1.487 0.653-3.147 0.98-4.98 0.98zM28.7-18.9v17.1h7.95c2.5 0 4.46-0.667 5.88-2 1.413-1.333 2.12-3.45 2.12-6.35v0-0.85c0-2.9-0.707-4.943-2.12-6.13-1.42-1.18-3.38-1.77-5.88-1.77v0zM28.7-34.75v14.05h6.95c2.767 0 4.81-0.527 6.13-1.58 1.313-1.047 1.97-3.02 1.97-5.92v0c0-1.867-0.36-3.267-1.08-4.2-0.713-0.933-1.693-1.557-2.94-1.87-1.253-0.32-2.697-0.48-4.33-0.48v0z" fill="#ffffff" fill-rule="nonzero" stroke="none" stroke-width="1" stroke-linecap="butt" stroke-linejoin="miter" stroke-miterlimit="10" stroke-dasharray="" stroke-dashoffset="0" font-family="none" font-weight="none" font-size="none" text-anchor="none" style="mix-blend-mode: normal" data-fill-palette-color="primary" opacity="1"></path></g></svg></g></svg></g></svg></g></svg></g></svg></g><defs></defs></svg><rect width="154.5" height="133.56229508196722" fill="none" stroke="none" visibility="hidden"></rect></g></svg></g></svg>